<svg width="28" height="28" viewBox="0 0 28 28" fill="none" xmlns="http://www.w3.org/2000/svg">
<path fill-rule="evenodd" clip-rule="evenodd" d="M13.7211 24.3294C11.1888 22.7709 8.83292 20.9366 6.6958 18.8594C5.1933 17.3634 4.04947 15.5397 3.35191 13.528C2.09663 9.62536 3.56288 5.15763 7.66627 3.83544C9.82284 3.14117 12.1782 3.53798 13.9954 4.90172C15.8133 3.53964 18.1678 3.14297 20.3245 3.83544C24.4279 5.15763 25.9047 9.62536 24.6494 13.528C23.9519 15.5397 22.808 17.3634 21.3056 18.8594C19.1684 20.9366 16.8126 22.7709 14.2802 24.3294L14.0059 24.5L13.7211 24.3294Z" stroke="#939393" stroke-width="1.5" stroke-linecap="round" stroke-linejoin="round"/>
<path d="M18.3625 8.22852C19.6054 8.62553 20.4885 9.74133 20.5988 11.0542" stroke="#939393" stroke-width="1.5" stroke-linecap="round" stroke-linejoin="round"/>
</svg>
